<?xml version="1.0" standalone="no"?>
<!DOCTYPE svg PUBLIC "-//W3C//DTD SVG 20010904//EN"
 "http://www.w3.org/TR/2001/REC-SVG-20010904/DTD/svg10.dtd">
<svg version="1.0" xmlns="http://www.w3.org/2000/svg"
 width="260.000000pt" height="260.000000pt" viewBox="0 0 260.000000 260.000000"
 preserveAspectRatio="xMidYMid meet">
<metadata>
Created by potrace 1.11, written by Peter Selinger 2001-2013
</metadata>
<g transform="translate(0.000000,260.000000) scale(0.100000,-0.100000)"
fill="#000000" stroke="none">
<path d="M48 1744 l-46 -43 438 -440 438 -440 73 24 c41 12 124 39 184 58 293
95 500 161 595 192 58 19 170 54 249 80 79 25 147 48 151 50 5 3 14 -1 22 -8
19 -20 143 -157 168 -187 19 -22 93 -106 160 -181 l25 -28 48 42 47 42 -33 35
c-18 19 -67 73 -107 120 -41 47 -79 90 -85 96 -42 46 -156 175 -226 254 -46
52 -86 97 -89 100 -3 3 -39 43 -80 90 -41 47 -79 90 -85 96 -5 6 -26 29 -46
51 l-36 39 -121 1 c-77 1 -126 -3 -135 -10 -8 -7 -38 -39 -67 -72 -29 -33 -67
-76 -84 -95 -17 -19 -63 -71 -101 -115 -39 -44 -72 -82 -75 -85 -3 -3 -34 -39
-70 -80 -36 -41 -68 -77 -71 -80 -3 -3 -35 -39 -70 -80 -35 -41 -83 -95 -107
-120 l-42 -45 -389 391 -388 390 -45 -42z m1715 -86 c6 -9 144 -166 167 -189
67 -67 121 -139 108 -144 -7 -2 -139 -45 -293 -94 -317 -101 -519 -166 -585
-188 -25 -8 -52 -16 -60 -18 -8 -2 -24 -7 -34 -11 -18 -7 -19 -6 -5 14 9 12
47 56 85 99 38 43 87 98 109 123 22 25 42 47 45 50 3 3 35 39 72 82 36 42 79
91 96 110 16 18 55 62 87 98 42 48 65 66 88 70 34 5 117 4 120 -2z"/>
</g>
</svg>
